<?xml version="1.0" encoding="UTF-8" standalone="no"?>
<svg
   xmlns:dc="http://purl.org/dc/elements/1.1/"
   xmlns:cc="http://creativecommons.org/ns#"
   xmlns:rdf="http://www.w3.org/1999/02/22-rdf-syntax-ns#"
   xmlns:svg="http://www.w3.org/2000/svg"
   xmlns="http://www.w3.org/2000/svg"
   xmlns:sodipodi="http://sodipodi.sourceforge.net/DTD/sodipodi-0.dtd"
   xmlns:inkscape="http://www.inkscape.org/namespaces/inkscape"
   viewBox="0 0 197.2359 197.23187"
   height="197.23187"
   width="197.2359"
   version="1.1"
   id="svg3336"
   inkscape:version="0.91 r13725"
   sodipodi:docname="logo2.svg">
  <sodipodi:namedview
     pagecolor="#ffffff"
     bordercolor="#666666"
     borderopacity="1"
     objecttolerance="10"
     gridtolerance="10"
     guidetolerance="10"
     inkscape:pageopacity="0"
     inkscape:pageshadow="2"
     inkscape:window-width="1366"
     inkscape:window-height="705"
     id="namedview8"
     showgrid="false"
     inkscape:zoom="3.3616029"
     inkscape:cx="108.02413"
     inkscape:cy="49.755733"
     inkscape:window-x="-8"
     inkscape:window-y="-8"
     inkscape:window-maximized="1"
     inkscape:current-layer="g3446"
     fit-margin-top="0"
     fit-margin-left="0"
     fit-margin-right="0"
     fit-margin-bottom="0" />
  <metadata
     id="metadata3342">
    <rdf:RDF>
      <cc:Work
         rdf:about="">
        <dc:format>image/svg+xml</dc:format>
        <dc:type
           rdf:resource="http://purl.org/dc/dcmitype/StillImage" />
        <dc:title></dc:title>
      </cc:Work>
    </rdf:RDF>
  </metadata>
  <defs
     id="defs3340" />
  <g
     transform="translate(-4.3247068,-23.042773)"
     id="g3446">
    <path
       id="path3450"
       d="M 76.060968,217.88654 C 36.843813,206.28698 8.860718,172.61472 4.812697,132.15299 0.07648,84.812431 30.259737,40.246587 76.044434,26.978702 128.07685,11.900298 182.8562,41.460338 198.70144,93.166901 c 1.13533,3.704846 2.5341,9.337579 2.84842,10.437579 0.31431,1.1 -6.3097,-5.069025 -13.51776,-12.214228 -11.50933,-11.408965 -12.54703,-13.318346 -14.07886,-12.226157 -4.37329,3.118141 -3.81351,7.068852 -10.46269,5.01513 -11.74111,-3.626459 -24.35542,-3.825566 -35.28962,-1.020638 -8.40914,2.157178 -15.19979,5.521853 -22.71154,13.966971 -2.64081,2.968942 -6.063835,9.929932 -7.471977,12.580162 -1.49578,2.81517 -4.008134,12.23689 -4.224584,12.48166 -0.21645,0.24477 -2.934777,-3.0505 -6.764775,-6.87463 -1.563285,-1.5609 -3.737958,-2.72803 -4.681814,-3.68995 -2.587504,-2.63703 -2.294056,-3.24183 -3.400652,-2.4499 -3.33195,2.3845 -4.39737,2.48199 -9.415024,0.86147 -6.489414,-2.09585 -9.345407,-2.0306 -14.550944,0.33244 -5.277929,2.3959 -8.261904,7.0468 -8.266922,12.88505 -0.0048,5.56097 1.676499,9.00001 8.629287,17.65113 9.146562,11.38075 9.150946,18.44591 2.32044,21.06852 l -3.172522,1.31076 -2.103158,0.093 -5.32635,-6.53594 c -4.261822,-5.22966 -7.649207,-9.43631 -8.575905,-9.43631 -1.163269,0 -3.317493,3.04088 -3.772119,5.6299 -0.362169,2.0625 -0.848074,4.7308 -0.568416,8.3701 0.110175,1.43374 1.402638,5.12352 2.445227,6.85999 0.659455,1.09835 0.633877,0.69391 1.193617,1.57459 l 23.247551,24.7666 c 14.390787,15.33111 25.530332,25.69967 25.259222,25.67039 -0.2711,-0.0293 -5.747208,-1.06252 -10.228604,-2.38802 z"
       style="fill:#ffffff"
       inkscape:connector-curvature="0" />
    <path
       id="path3448"
       d="M 94.76671,221.29194 86.1057,220.25427 60.613663,194.80775 c -19.533579,-19.4987 -23.472276,-25.3488 -24.411176,-27.11626 -0.08555,-0.16106 -0.145282,-0.2612 -0.0873,-0.30488 0.165711,-0.12486 0.793322,0.18791 1.13145,-0.17503 0.615348,-0.66049 0.998282,-2.52722 1.525643,-2.46353 1.086882,0.13127 2.614557,3.10911 6.844707,4.23629 7.91912,2.11015 11.793291,0.65589 16.565323,-1.33446 8.12751,-3.38988 12.382145,-11.87318 11.039982,-19.02751 -0.981429,-5.23147 -2.815013,-8.35661 -9.375688,-15.9798 -3.190119,-3.70677 -6.326138,-7.7225 -6.96893,-8.92384 -3.07609,-5.74903 0.193696,-10.77029 7.013496,-10.77029 3.258474,0 4.562634,0.60456 6.866517,3.18305 1.56423,1.75068 3.12824,4.89045 3.475577,6.97728 1.513194,9.09135 3.450234,8.29405 5.545014,-2.28238 0.863125,-4.35787 1.766674,-8.49655 2.007892,-9.19706 0.26654,-0.77409 2.74549,1.05759 6.32,4.66978 l 5.88143,5.94345 -0.474208,9.12873 c -0.490746,9.44708 0.124825,13.08844 2.413035,17.96779 3.33005,7.101 8.015933,12.61404 15.116933,15.94409 5.0126,2.3507 9.34652,4.76337 19.66517,4.76337 9.97535,0 17.51022,-3.6512 21.55444,-5.64347 3.16388,-1.5586 4.92867,-3.78122 7.06867,-6.03789 1.84305,-1.94354 3.62584,-4.44049 5.43328,-7.06752 2.60282,-3.78307 1.31644,-5.72183 -0.23774,-5.72183 -0.99232,0 -2.62612,1.43196 -5.46879,4.37691 -6.27272,6.49844 -15.27872,8.4621 -23.41351,9.12265 -16.46533,1.33699 -27.977,-7.04406 -27.91856,-24.1039 0.0645,-18.822 11.6771,-37.027704 26.11486,-44.885715 7.03773,-3.830414 16.41273,-3.699137 22.87707,-2.747335 4.57385,0.673448 8.25036,1.303491 9.75128,4.354815 1.02682,2.087491 -0.51001,7.910867 0.23103,11.205715 0.93064,4.13789 1.93668,3.50402 2.64368,3.50402 0.7085,0 2.49253,-5.53227 4.39498,-13.628789 l 3.20237,-12.482044 12.44828,11.684003 12.21064,11.68855 0.36695,2.38211 0.51755,7.10617 c 0.82595,11.34055 -0.13103,25.25614 -2.83072,35.25 -2.5085,9.28611 -10.43346,25.67347 -15.95887,33 -16.69713,22.13991 -43.4951,37.55561 -68.68985,39.51427 -4.28814,0.33336 -9.71308,0.64287 -10.98985,0.66326 -1.11045,0.0177 -4.60577,0.14467 -9.24901,-0.28858 z M 46.61337,162.73845 c -3.431731,-2.13038 -4.80618,-4.48632 -5.837312,-10.00569 l -0.853944,-4.57095 7.893423,7.84713 c 4.341383,4.31592 7.141462,6.76705 7.141462,6.91745 0,0.99382 -6.219413,1.13074 -8.343629,-0.18794 z"
       style="fill:#f2f2f2"
       inkscape:connector-curvature="0" />
  </g>
</svg>
